<svg xmlns="http://www.w3.org/2000/svg" viewBox="0 0 800 380" font-family="-apple-system, system-ui, sans-serif">
  <rect width="800" height="380" fill="#f1f3f4"/>
  <!-- Top bar -->
  <rect x="0" y="0" width="800" height="56" fill="#ffffff" stroke="#dadce0"/>
  <text x="20" y="36" font-size="22" fill="#202124">Extensions</text>
  <!-- Developer mode toggle (highlighted) -->
  <rect x="540" y="14" width="240" height="32" rx="6" fill="#fff" stroke="#1a73e8" stroke-width="3"/>
  <text x="552" y="34" font-size="14" fill="#202124">Developer mode</text>
  <rect x="734" y="20" width="38" height="20" rx="10" fill="#1a73e8"/>
  <circle cx="762" cy="30" r="8" fill="#fff"/>
  <text x="540" y="74" font-size="12" fill="#1a73e8" font-weight="600">① Toggle this ON</text>
  <!-- Sub-bar with Load unpacked button (dimmed in this step) -->
  <rect x="0" y="56" width="800" height="50" fill="#fff" stroke="#dadce0"/>
  <rect x="20" y="68" width="120" height="28" rx="14" fill="#fff" stroke="#dadce0"/>
  <text x="36" y="86" font-size="13" fill="#5f6368">Load unpacked</text>
  <rect x="150" y="68" width="120" height="28" rx="14" fill="#fff" stroke="#dadce0"/>
  <text x="170" y="86" font-size="13" fill="#5f6368">Pack extension</text>
  <rect x="280" y="68" width="120" height="28" rx="14" fill="#fff" stroke="#dadce0"/>
  <text x="298" y="86" font-size="13" fill="#5f6368">Update</text>
  <!-- URL bar context -->
  <text x="20" y="138" font-size="14" fill="#5f6368">URL:</text>
  <rect x="60" y="124" width="220" height="22" rx="3" fill="#fff" stroke="#dadce0"/>
  <text x="68" y="140" font-size="13" fill="#202124" font-family="monospace">chrome://extensions</text>
  <!-- Empty state -->
  <text x="400" y="240" font-size="18" fill="#5f6368" text-anchor="middle">No extensions installed yet.</text>
  <text x="400" y="262" font-size="14" fill="#80868b" text-anchor="middle">After turning Developer mode on, the "Load unpacked" button activates.</text>
  <!-- Footer note -->
  <rect x="0" y="332" width="800" height="48" fill="#e8f0fe"/>
  <text x="400" y="360" font-size="13" fill="#1967d2" text-anchor="middle">Step 1 of 2 — turn Developer mode ON, then continue with the next screenshot.</text>
</svg>
