<svg xmlns="http://www.w3.org/2000/svg" viewBox="0 0 800 380" font-family="-apple-system, system-ui, sans-serif">
  <rect width="800" height="380" fill="#f1f3f4"/>
  <!-- Top bar -->
  <rect x="0" y="0" width="800" height="56" fill="#ffffff" stroke="#dadce0"/>
  <text x="20" y="36" font-size="22" fill="#202124">Extensions</text>
  <!-- Developer mode toggle (now ON) -->
  <rect x="540" y="14" width="240" height="32" rx="6" fill="#fff" stroke="#dadce0"/>
  <text x="552" y="34" font-size="14" fill="#202124">Developer mode</text>
  <rect x="734" y="20" width="38" height="20" rx="10" fill="#1a73e8"/>
  <circle cx="762" cy="30" r="8" fill="#fff"/>
  <!-- Sub-bar — Load unpacked highlighted -->
  <rect x="0" y="56" width="800" height="50" fill="#fff" stroke="#dadce0"/>
  <rect x="20" y="64" width="124" height="32" rx="16" fill="#e8f0fe" stroke="#1a73e8" stroke-width="3"/>
  <text x="36" y="84" font-size="13" fill="#1a73e8" font-weight="600">Load unpacked</text>
  <text x="20" y="124" font-size="12" fill="#1a73e8" font-weight="600">② Click this</text>
  <rect x="150" y="68" width="120" height="28" rx="14" fill="#fff" stroke="#dadce0"/>
  <text x="170" y="86" font-size="13" fill="#5f6368">Pack extension</text>
  <rect x="280" y="68" width="120" height="28" rx="14" fill="#fff" stroke="#dadce0"/>
  <text x="298" y="86" font-size="13" fill="#5f6368">Update</text>
  <!-- File picker dialog mockup -->
  <rect x="200" y="160" width="400" height="160" rx="8" fill="#fff" stroke="#dadce0" stroke-width="2"/>
  <text x="220" y="190" font-size="14" fill="#202124" font-weight="600">Select Folder</text>
  <line x1="220" y1="200" x2="580" y2="200" stroke="#dadce0"/>
  <text x="220" y="230" font-size="13" fill="#5f6368">Browse to where you unzipped</text>
  <text x="220" y="250" font-size="13" fill="#5f6368">linkshit-extension-vX.Y.Z.zip</text>
  <text x="220" y="280" font-size="12" fill="#80868b" font-family="monospace">~/Downloads/linkshit-extension-v0.2.0/</text>
  <rect x="490" y="290" width="80" height="22" rx="3" fill="#1a73e8"/>
  <text x="530" y="306" font-size="13" fill="#fff" text-anchor="middle">Select</text>
  <!-- Footer note -->
  <rect x="0" y="332" width="800" height="48" fill="#e8f0fe"/>
  <text x="400" y="360" font-size="13" fill="#1967d2" text-anchor="middle">Step 2 of 2 — click Load unpacked, pick the unzipped folder.</text>
</svg>
