<svg xmlns="http://www.w3.org/2000/svg" viewBox="0 0 900 480" font-family="-apple-system, system-ui, sans-serif">
  <rect width="900" height="480" fill="#f3f2ef"/>
  <!-- LinkedIn top bar -->
  <rect x="0" y="0" width="900" height="56" fill="#ffffff" stroke="#e0dfdc"/>
  <rect x="20" y="14" width="28" height="28" rx="4" fill="#0a66c2"/>
  <text x="34" y="34" font-size="18" fill="#fff" text-anchor="middle" font-weight="700">in</text>
  <rect x="60" y="16" width="220" height="24" rx="3" fill="#eef3f8" stroke="#dce6f1"/>
  <text x="68" y="32" font-size="12" fill="#5e6064">Search</text>
  <!-- Feed column -->
  <rect x="100" y="76" width="500" height="160" rx="8" fill="#fff" stroke="#e0dfdc"/>
  <circle cx="124" cy="100" r="14" fill="#cfd2d6"/>
  <text x="148" y="100" font-size="13" fill="#000" font-weight="600">Some Person</text>
  <text x="148" y="116" font-size="11" fill="#5e6064">Founder · 2h</text>
  <text x="116" y="148" font-size="12" fill="#000">Yet another generic motivational post about leadership</text>
  <text x="116" y="166" font-size="12" fill="#000">that you definitely want Linkshit to skip.</text>
  <text x="116" y="200" font-size="11" fill="#5e6064">42 reactions · 7 comments</text>
  <rect x="100" y="252" width="500" height="160" rx="8" fill="#fff" stroke="#e0dfdc"/>
  <circle cx="124" cy="276" r="14" fill="#cfd2d6"/>
  <text x="148" y="276" font-size="13" fill="#000" font-weight="600">Another Person</text>
  <text x="148" y="292" font-size="11" fill="#5e6064">Engineer · 1h</text>
  <text x="116" y="324" font-size="12" fill="#000">First-person story about hiring an AI engineering team</text>
  <text x="116" y="342" font-size="12" fill="#000">at a Czech startup, with concrete sourcing tactics.</text>
  <text x="116" y="376" font-size="11" fill="#5e6064">280 reactions · 35 comments</text>
  <!-- Linkshit panel -->
  <rect x="640" y="76" width="240" height="380" rx="8" fill="#fff" stroke="#dadce0" stroke-width="2"/>
  <rect x="640" y="76" width="240" height="36" rx="8" fill="#fff" stroke="#eee"/>
  <text x="654" y="100" font-size="13" fill="#000" font-weight="600">Linkshit</text>
  <rect x="710" y="84" width="44" height="20" rx="3" fill="#0a66c2"/>
  <text x="732" y="98" font-size="11" fill="#fff" text-anchor="middle">Start</text>
  <rect x="758" y="84" width="42" height="20" rx="3" fill="#f5f5f5" stroke="#aaa"/>
  <text x="779" y="98" font-size="11" fill="#202124" text-anchor="middle">Stop</text>
  <rect x="804" y="84" width="22" height="20" rx="3" fill="#f5f5f5" stroke="#aaa"/>
  <text x="815" y="98" font-size="11" fill="#202124" text-anchor="middle">⚙</text>
  <!-- counters -->
  <rect x="640" y="112" width="240" height="28" fill="#fafafa" stroke="#eee"/>
  <text x="652" y="130" font-size="10" fill="#666">captured 42  ·  queued 6  ·  scored 18  ·  hits 3</text>
  <!-- status -->
  <rect x="640" y="140" width="240" height="22" fill="#fafafa" stroke="#eee"/>
  <text x="652" y="156" font-size="11" fill="#555">Scrolling…</text>
  <!-- one hit row -->
  <rect x="640" y="172" width="240" height="78" fill="#fff" stroke="#f0f0f0"/>
  <rect x="848" y="180" width="22" height="14" rx="2" fill="#0a66c2"/>
  <text x="859" y="191" font-size="9" fill="#fff" text-anchor="middle">9</text>
  <text x="652" y="190" font-size="11" fill="#000" font-weight="600">Another Person</text>
  <text x="652" y="206" font-size="10" fill="#555" font-style="italic">First-person story on AI hiring</text>
  <text x="652" y="220" font-size="10" fill="#555" font-style="italic">at a Czech startup — exactly</text>
  <text x="652" y="234" font-size="10" fill="#555" font-style="italic">your stated criterion.</text>
  <text x="652" y="248" font-size="10" fill="#0a66c2">Open on LinkedIn →</text>
  <rect x="640" y="252" width="240" height="48" fill="#fff" stroke="#f0f0f0"/>
  <rect x="848" y="260" width="22" height="14" rx="2" fill="#0a66c2"/>
  <text x="859" y="271" font-size="9" fill="#fff" text-anchor="middle">7</text>
  <text x="652" y="270" font-size="11" fill="#000" font-weight="600">Yet Another Person</text>
  <text x="652" y="286" font-size="10" fill="#555" font-style="italic">Tangential but worth a glance.</text>
  <!-- arrow / annotation -->
  <text x="612" y="120" font-size="14" fill="#1a73e8" font-weight="600" text-anchor="end">⟶</text>
  <text x="606" y="98" font-size="11" fill="#1a73e8" font-weight="600" text-anchor="end">Linkshit panel</text>
  <text x="606" y="112" font-size="11" fill="#1a73e8" font-weight="600" text-anchor="end">(top right of feed)</text>
</svg>
